<?xml version="1.0" standalone="no"?>
<!DOCTYPE svg PUBLIC "-//W3C//DTD SVG 20010904//EN"
 "http://www.w3.org/TR/2001/REC-SVG-20010904/DTD/svg10.dtd">
<svg version="1.0" xmlns="http://www.w3.org/2000/svg"
 width="512.000000pt" height="512.000000pt" viewBox="0 0 512.000000 512.000000"
 preserveAspectRatio="xMidYMid meet">
<metadata>
Created by potrace 1.14, written by Peter Selinger 2001-2017
</metadata>
<g transform="translate(0.000000,512.000000) scale(0.100000,-0.100000)"
fill="#000000" stroke="none">
<path d="M3860 3562 c0 -13 -2 -14 -9 -3 -6 9 -10 10 -16 2 -5 -9 -10 -9 -21
0 -12 10 -13 9 -9 -4 4 -8 1 -18 -6 -23 -8 -5 -10 -3 -4 7 5 8 -4 3 -20 -11
-16 -14 -25 -18 -21 -10 4 8 1 6 -8 -4 -8 -10 -13 -23 -9 -29 4 -6 1 -7 -7 -2
-8 5 -17 2 -24 -7 -6 -8 -19 -17 -28 -21 -10 -3 -18 -14 -18 -22 0 -9 -4 -14
-9 -10 -6 3 -15 -4 -21 -15 -6 -11 -15 -18 -21 -15 -5 4 -9 1 -9 -5 0 -6 -4
-8 -10 -5 -6 4 -7 -1 -3 -12 3 -10 3 -15 -2 -11 -4 4 -16 -4 -27 -17 -11 -14
-24 -23 -29 -20 -5 4 -9 1 -9 -5 0 -6 -4 -8 -10 -5 -9 6 -14 -8 -11 -28 0 -4
-5 -6 -11 -5 -7 2 -12 -3 -10 -10 1 -8 -2 -11 -8 -7 -13 8 -42 -14 -34 -26 3
-5 -3 -6 -12 -2 -13 5 -15 3 -9 -7 6 -10 4 -12 -7 -7 -11 4 -18 -1 -21 -15 -3
-11 -10 -17 -16 -13 -6 3 -11 -1 -11 -10 0 -11 -5 -15 -15 -11 -8 3 -14 0 -12
-7 1 -7 -4 -11 -11 -9 -8 1 -11 -1 -9 -5 3 -5 -1 -14 -9 -21 -8 -7 -14 -10
-14 -6 0 4 -13 -8 -30 -26 -16 -18 -30 -31 -30 -27 0 4 -10 -3 -22 -15 -13
-13 -22 -27 -20 -32 2 -5 -5 -3 -14 5 -10 8 -15 9 -11 3 8 -14 -16 -37 -28
-26 -5 4 -5 -1 -2 -10 4 -12 -2 -19 -21 -27 -15 -5 -38 -19 -52 -31 l-25 -21
25 11 25 11 -25 -20 c-13 -10 -28 -17 -32 -15 -5 3 -11 -2 -14 -10 -3 -9 -21
-25 -40 -37 -19 -11 -32 -25 -28 -30 3 -5 2 -9 -3 -8 -19 3 -34 -2 -29 -10 3
-5 -8 -14 -24 -21 -16 -7 -27 -17 -23 -23 4 -6 0 -8 -10 -4 -9 3 -16 3 -16 -1
3 -20 -2 -32 -14 -32 -8 0 -22 -9 -32 -20 -10 -11 -22 -17 -27 -14 -4 3 -7 0
-6 -8 2 -7 -2 -12 -9 -11 -6 2 -15 -6 -18 -17 -4 -11 -11 -18 -16 -15 -5 4 -9
1 -9 -4 0 -6 -6 -11 -14 -11 -7 0 -16 -9 -19 -20 -3 -12 -14 -20 -26 -20 -15
0 -19 -4 -14 -17 4 -11 3 -14 -5 -9 -7 4 -15 1 -18 -8 -3 -9 -11 -16 -16 -16
-6 0 -19 -9 -29 -21 -9 -11 -20 -20 -23 -20 -3 1 -6 -2 -7 -6 0 -5 -11 -14
-25 -21 -13 -7 -24 -17 -24 -23 0 -6 -7 -8 -16 -5 -8 3 -13 2 -11 -2 3 -4 -8
-20 -24 -35 -16 -16 -29 -25 -29 -20 0 4 -7 -3 -16 -15 -8 -12 -21 -22 -28
-22 -15 0 -48 -34 -41 -42 3 -3 -1 -8 -10 -12 -11 -4 -14 -2 -10 7 4 6 -1 3
-10 -8 -9 -11 -21 -19 -26 -17 -6 1 -8 -2 -4 -8 3 -5 -5 -15 -19 -21 -14 -7
-23 -15 -21 -19 7 -11 -24 -22 -37 -13 -7 4 -8 1 -4 -6 9 -13 -23 -43 -37 -34
-4 2 -7 1 -6 -4 1 -4 1 -15 0 -23 -1 -13 -2 -13 -11 0 -6 9 -10 10 -10 3 0 -8
-9 -9 -29 -3 -16 4 -32 6 -35 2 -3 -3 -6 2 -6 10 0 9 -7 19 -16 22 -15 6 -15
4 -3 -11 11 -13 4 -12 -26 6 -22 13 -53 26 -70 28 -16 3 -36 6 -44 7 -8 2 -19
10 -26 20 -10 13 -14 14 -18 4 -4 -9 -6 -10 -6 -1 -1 7 -7 10 -15 7 -7 -3 -22
3 -31 13 -10 10 -20 17 -22 16 -10 -9 -23 -1 -17 10 5 8 2 8 -9 -2 -12 -9 -17
-10 -17 -2 0 7 -4 9 -10 6 -5 -3 -10 -2 -10 3 0 5 -7 9 -15 10 -8 1 -22 3 -30
4 -8 1 -15 7 -15 13 0 6 -7 12 -15 12 -12 0 -12 -3 -3 -16 9 -12 7 -11 -8 1
-11 10 -28 18 -37 18 -9 0 -17 5 -17 12 0 6 -3 9 -6 5 -4 -3 -19 0 -34 8 -22
11 -30 12 -33 2 -3 -7 -6 -4 -6 6 -1 10 -5 15 -11 12 -5 -3 -10 -1 -10 4 0 6
-5 11 -11 11 -5 0 -7 -6 -4 -13 4 -6 -1 -3 -9 7 -9 11 -16 15 -16 8 0 -6 -7
-9 -15 -6 -8 4 -12 10 -9 15 3 5 -9 9 -25 9 -17 0 -31 5 -31 10 0 6 -9 10 -21
10 -13 0 -18 4 -13 13 5 8 2 8 -9 -2 -11 -9 -17 -10 -17 -2 0 6 -12 11 -26 11
-14 0 -23 4 -19 10 6 10 -7 14 -34 10 -8 -1 -18 4 -22 12 -7 10 -9 10 -9 0 0
-10 -3 -10 -14 0 -8 7 -11 18 -8 23 3 6 -2 4 -11 -4 -9 -7 -17 -9 -17 -4 0 6
-12 10 -27 9 -20 -1 -31 6 -40 24 -11 22 -13 23 -14 5 0 -11 -3 -15 -5 -8 -3
7 -12 9 -21 6 -10 -4 -14 -2 -10 4 4 6 0 14 -9 17 -8 3 -12 2 -9 -4 3 -6 -1
-7 -9 -4 -9 3 -14 9 -11 13 2 4 -15 7 -39 7 -35 -1 -42 2 -38 14 5 13 3 13
-10 2 -9 -7 -30 -14 -47 -14 -17 -1 -31 -4 -31 -7 0 -4 -14 -12 -31 -18 -17
-7 -33 -21 -36 -32 -5 -19 -15 -25 -35 -22 -5 0 -8 -6 -8 -15 0 -9 5 -13 12
-8 7 3 1 -4 -13 -17 -15 -13 -29 -32 -32 -41 -4 -10 -13 -18 -22 -18 -8 0 -15
-5 -15 -11 0 -5 6 -7 13 -3 8 5 8 3 -2 -9 -7 -9 -18 -14 -24 -10 -6 3 -7 1 -3
-5 4 -7 2 -12 -3 -12 -6 0 -10 -4 -8 -9 1 -5 -7 -17 -18 -26 -11 -9 -13 -13
-5 -9 8 4 5 -3 -8 -15 -12 -12 -20 -26 -17 -30 2 -5 -3 -8 -12 -7 -11 0 -18
-6 -18 -19 0 -11 -6 -19 -12 -18 -7 2 -12 0 -11 -5 3 -15 -25 -61 -35 -55 -6
4 -8 0 -4 -10 4 -10 2 -16 -5 -14 -6 1 -17 -9 -24 -22 -7 -13 -16 -26 -21 -30
-4 -3 -15 -15 -23 -26 l-15 -20 25 20 25 20 -19 -22 c-11 -13 -25 -23 -33 -23
-7 0 -12 -3 -11 -7 3 -17 -15 -42 -26 -36 -6 3 -8 3 -4 -2 11 -11 -11 -47 -24
-39 -7 4 -8 3 -4 -4 4 -7 2 -12 -4 -12 -6 0 -9 -4 -5 -9 3 -6 -1 -13 -8 -18
-7 -4 -17 -16 -20 -26 -4 -11 -12 -15 -18 -11 -8 4 -9 3 -5 -4 4 -7 1 -12 -6
-12 -9 0 -9 -3 2 -10 15 -9 14 -11 -12 -14 -7 -1 -12 -7 -11 -14 2 -7 0 -12
-5 -12 -4 0 -13 -13 -20 -30 -8 -16 -17 -28 -20 -27 -4 1 -9 -2 -11 -8 -2 -5
-11 -16 -20 -23 -12 -10 -12 -12 -1 -6 13 7 13 5 1 -9 -7 -9 -18 -14 -24 -10
-6 3 -7 1 -3 -5 4 -7 2 -12 -3 -12 -6 0 -10 -6 -8 -12 1 -7 -4 -12 -11 -10 -8
1 -11 -2 -8 -7 4 -5 2 -12 -4 -16 -6 -4 -8 -10 -5 -15 3 -4 -3 -14 -13 -21
-16 -13 -16 -13 -2 6 14 18 14 19 -1 7 -9 -7 -22 -26 -29 -42 -7 -16 -16 -27
-21 -25 -4 3 -8 -145 -9 -330 0 -214 3 -335 9 -335 12 0 36 41 33 53 -1 5 2 6
8 2 5 -3 10 -1 10 5 0 6 5 8 12 4 7 -4 8 -3 4 5 -9 13 12 43 24 36 5 -3 6 4 3
15 -4 14 -1 20 8 18 7 -2 14 4 14 12 0 8 6 14 13 13 7 -2 9 4 5 14 -4 11 -3
14 5 9 8 -5 12 0 12 13 0 15 4 19 17 14 12 -5 15 -2 10 10 -4 11 1 20 13 27
11 6 19 14 19 18 -3 19 2 33 11 27 5 -3 12 6 16 20 3 13 10 22 15 19 5 -3 9 2
9 11 0 10 5 13 12 9 6 -4 8 -3 5 3 -4 6 4 22 18 34 13 13 25 29 25 36 0 7 8
17 18 22 9 6 13 11 9 11 -5 0 -2 7 5 15 30 33 43 50 43 55 0 3 3 4 6 3 4 -1
14 16 24 38 13 27 23 38 33 34 13 -5 13 -3 1 12 -8 9 -9 14 -4 11 6 -3 16 0
23 8 7 8 9 14 5 14 -4 1 3 10 16 20 13 11 20 20 16 20 -3 0 1 7 9 16 9 8 13
21 9 27 -3 7 -3 9 2 5 4 -4 18 7 30 25 12 18 28 31 35 29 10 -2 11 0 2 10 -9
11 -5 19 18 38 16 13 27 27 24 31 -2 5 5 13 16 19 11 6 18 15 15 21 -4 5 -1 9
4 9 6 0 11 5 11 11 0 7 10 20 22 30 11 11 17 19 12 19 -5 1 2 7 16 15 14 8 19
14 12 15 -8 0 -5 8 9 23 11 12 32 39 45 60 14 21 29 35 33 32 5 -2 8 3 7 13 0
9 5 16 12 14 8 -1 11 1 8 6 -3 5 8 24 25 43 16 18 27 39 25 46 -3 7 0 12 7 10
7 -1 11 4 9 11 -1 8 2 11 8 7 6 -4 18 -1 27 7 12 9 15 9 9 1 -6 -12 11 -18 36
-14 5 0 8 -4 8 -10 0 -5 5 -7 10 -4 6 3 10 1 10 -5 0 -6 8 -10 17 -8 11 2 17
-2 15 -11 -3 -12 0 -12 12 -1 12 9 16 9 16 1 0 -7 5 -9 10 -6 6 3 10 2 10 -3
0 -6 7 -13 16 -16 10 -4 13 -2 8 7 -4 6 3 3 16 -8 13 -11 21 -15 17 -9 -3 6 0
11 8 11 8 0 13 -3 10 -5 -10 -10 33 -31 54 -27 11 2 24 -1 27 -7 5 -7 2 -8 -6
-3 -9 5 -11 4 -6 -4 6 -9 11 -9 21 -1 9 7 16 6 24 -4 7 -8 20 -12 29 -9 9 3
14 3 10 -2 -13 -13 25 -35 39 -23 9 7 13 7 13 -1 0 -7 8 -11 18 -10 9 2 33 -7
51 -19 27 -16 38 -19 49 -10 10 9 12 8 10 -3 -2 -8 3 -13 10 -11 7 1 22 -4 34
-12 11 -8 27 -12 36 -9 11 5 13 3 7 -7 -6 -10 -4 -12 8 -7 10 3 17 3 17 -2 0
-5 11 -7 24 -6 17 2 23 -1 19 -11 -3 -9 2 -12 16 -9 12 2 21 0 21 -6 0 -5 10
-9 21 -9 12 0 28 -8 36 -17 8 -10 11 -12 7 -4 -5 11 -3 13 10 8 10 -4 20 -7
22 -7 3 0 2 -6 -2 -12 -5 -9 -2 -9 9 1 15 12 17 11 17 -5 0 -16 2 -17 10 -4 7
11 10 11 10 2 0 -7 4 -11 9 -8 5 4 12 0 14 -6 4 -10 6 -9 6 1 1 10 7 7 20 -8
14 -16 21 -18 24 -9 4 10 6 10 6 -1 1 -11 4 -11 17 -1 12 11 15 11 12 -1 -2
-9 4 -13 16 -11 11 2 15 -1 11 -7 -3 -7 2 -11 14 -11 12 0 21 -5 21 -10 0 -6
6 -9 13 -8 6 2 11 -3 9 -10 -1 -6 2 -11 7 -10 10 3 91 -80 91 -93 0 -5 3 -8 8
-8 4 1 14 1 22 0 13 -1 13 -2 0 -11 -8 -5 -10 -10 -4 -10 6 0 33 -20 58 -45
26 -25 52 -45 57 -45 5 0 9 -5 9 -11 0 -5 -6 -7 -13 -3 -6 4 -3 -2 8 -13 11
-12 25 -20 30 -19 6 0 9 -5 7 -11 -1 -7 3 -13 9 -13 15 0 39 -26 32 -34 -4 -3
1 -6 11 -6 9 0 14 -5 11 -10 -3 -5 1 -10 10 -10 9 0 13 -4 10 -10 -3 -5 1 -10
9 -10 9 0 16 -7 16 -16 0 -8 4 -12 10 -9 6 3 10 0 10 -8 0 -14 26 -32 41 -29
4 1 5 -9 2 -21 -4 -18 -3 -19 6 -7 9 13 11 12 11 -4 0 -11 3 -16 6 -13 4 3 15
-5 26 -18 11 -14 24 -23 29 -20 5 4 6 -2 2 -11 -4 -12 -3 -15 5 -10 7 4 12 1
12 -9 0 -9 5 -13 10 -10 9 6 14 -8 11 -28 -1 -5 2 -6 7 -3 5 3 18 -5 30 -17
11 -12 28 -28 37 -35 8 -7 13 -18 9 -23 -3 -5 0 -8 8 -7 7 2 12 -4 10 -12 -2
-8 0 -12 4 -7 4 4 28 -14 52 -40 24 -27 48 -47 53 -45 9 2 13 -14 9 -33 -1 -5
1 -7 5 -3 9 8 75 -56 75 -74 0 -10 3 -9 10 2 6 10 10 11 10 3 0 -18 32 -53 48
-53 7 0 10 -4 7 -10 -3 -5 -1 -10 6 -10 7 0 9 -3 6 -7 -4 -3 3 -11 14 -17 12
-6 21 -15 21 -21 -1 -11 26 -29 43 -30 6 0 10 -5 10 -12 0 -15 47 -59 59 -55
5 2 3 -5 -5 -14 -8 -10 -9 -15 -2 -11 7 4 28 -8 50 -30 21 -20 27 -28 13 -18
-19 15 -18 12 5 -12 20 -20 33 -26 37 -19 5 6 8 2 8 -11 0 -14 6 -23 15 -23 8
0 15 -4 15 -8 0 -5 7 -17 16 -28 8 -10 13 -12 9 -4 -4 8 0 6 9 -4 8 -10 13
-23 10 -28 -3 -5 -2 -8 3 -7 18 3 36 -1 30 -7 -8 -8 18 -34 33 -34 6 0 8 -4 5
-10 -3 -5 1 -10 10 -10 9 0 13 -5 10 -10 -3 -6 -1 -10 5 -10 6 0 8 -5 4 -12
-4 -6 -3 -8 3 -5 12 8 36 -17 27 -26 -4 -4 3 -4 15 -2 16 3 21 0 19 -13 -2 -9
3 -16 10 -15 6 2 12 -3 12 -11 0 -8 9 -18 20 -21 11 -3 20 -11 20 -16 0 -6 -6
-7 -12 -3 -8 4 -10 3 -5 -2 5 -5 12 -9 16 -9 12 0 69 -63 63 -70 -4 -3 2 -3
13 1 15 6 17 4 11 -11 -4 -11 -4 -16 0 -12 4 4 18 -6 32 -21 14 -15 30 -26 35
-24 5 2 7 -4 4 -12 -4 -11 -1 -13 11 -9 9 3 14 3 10 -2 -4 -4 -3 -14 3 -22 9
-10 70 -13 296 -13 253 0 283 2 269 15 -8 8 -19 15 -25 15 -6 0 -10 6 -8 12 1
7 -2 13 -8 12 -5 0 -20 10 -32 23 -12 12 -20 23 -17 23 2 0 -6 11 -18 24 -13
13 -26 21 -30 19 -5 -2 -8 2 -8 10 0 17 -42 57 -60 57 -7 0 -11 3 -7 6 8 8
-18 34 -34 34 -7 0 -10 3 -6 6 9 10 -30 47 -42 39 -6 -3 -11 1 -11 10 0 20
-25 47 -34 37 -4 -3 -4 2 0 13 6 15 4 17 -10 12 -10 -4 -15 -3 -11 3 3 6 -1
10 -9 10 -10 0 -13 6 -10 15 5 11 2 13 -12 8 -11 -4 -15 -3 -11 4 4 6 0 14 -9
17 -9 4 -14 9 -11 12 11 12 -17 32 -30 22 -9 -7 -11 -4 -8 11 2 12 0 19 -4 16
-12 -7 -34 22 -26 35 3 5 2 10 -4 10 -5 0 -11 -6 -14 -12 -2 -7 -8 -1 -12 13
-3 15 -18 32 -31 38 -14 6 -22 16 -19 21 3 6 2 10 -3 10 -14 0 -52 36 -45 44
3 3 1 6 -6 6 -16 0 -42 26 -34 34 6 6 -12 10 -30 7 -5 -1 -6 3 -2 8 3 6 -3 16
-15 23 -11 7 -20 19 -20 27 0 8 -3 11 -7 8 -3 -4 -13 2 -20 13 -8 11 -19 17
-25 14 -6 -4 -8 -2 -4 4 3 6 0 14 -7 19 -7 4 -17 16 -20 27 -5 11 -13 16 -23
12 -8 -3 -13 -2 -10 3 7 10 -102 121 -118 121 -6 0 -4 5 4 10 13 8 12 10 -2
10 -10 0 -18 5 -18 10 0 6 -7 10 -16 10 -8 0 -13 3 -11 8 3 4 -5 16 -16 27
-11 12 -17 14 -13 5 4 -8 1 -6 -8 4 -8 10 -13 23 -10 28 3 5 2 8 -3 7 -4 -1
-15 -1 -23 0 -13 1 -13 2 0 11 10 6 11 10 3 10 -17 0 -53 36 -53 53 0 8 -4 7
-10 -3 -7 -11 -10 -12 -10 -2 0 18 -26 43 -35 34 -4 -4 -5 -1 -3 7 1 8 -8 20
-22 28 -14 7 -21 13 -17 13 5 0 -35 42 -87 94 -53 52 -96 99 -96 105 0 6 -3
11 -7 11 -5 0 -21 12 -38 26 -16 14 -24 22 -16 18 9 -5 12 -3 7 4 -4 7 -11 12
-16 12 -11 0 -59 47 -54 53 2 2 -7 10 -21 17 -15 8 -23 20 -20 27 2 8 1 12 -4
9 -4 -3 -17 2 -27 10 -10 9 -13 13 -6 9 6 -3 12 -4 12 0 0 3 -11 10 -25 15
-16 6 -25 18 -26 32 0 13 -3 18 -5 11 -4 -8 -11 -7 -23 5 -10 9 -17 19 -16 22
1 3 -7 14 -18 25 -11 12 -17 14 -13 5 4 -8 0 -6 -8 4 -9 11 -16 24 -16 29 0 4
-5 5 -12 1 -8 -5 -9 -2 -5 10 4 9 3 15 -2 12 -9 -6 -38 23 -33 33 1 3 -4 6
-10 6 -7 1 -12 7 -10 14 1 7 -2 10 -7 7 -5 -4 -12 -2 -16 4 -4 6 -11 8 -16 4
-6 -3 -9 2 -7 12 4 23 50 74 61 67 4 -2 7 3 7 12 0 9 5 13 10 10 6 -3 10 -1
10 5 0 6 5 8 10 5 6 -3 10 2 10 11 0 10 3 15 6 11 9 -8 33 16 26 27 -3 5 0 6
6 2 6 -3 13 -2 17 4 4 6 12 7 18 3 7 -4 6 1 -2 11 -8 9 -10 16 -5 14 12 -3 94
52 94 63 0 5 6 9 14 9 8 0 17 7 20 16 3 8 11 12 16 9 6 -4 9 -3 8 2 -2 4 7 18
20 31 12 12 22 20 22 17 0 -3 14 8 31 25 17 16 36 27 42 23 6 -3 7 -1 3 5 -4
7 -2 12 4 12 6 0 9 4 6 9 -7 11 22 23 35 16 5 -4 6 2 2 11 -4 12 -3 15 5 10 7
-4 12 -1 12 8 0 9 7 16 15 16 9 0 18 7 21 15 4 8 9 13 13 10 4 -2 14 5 21 16
8 10 20 19 27 19 6 0 15 5 19 12 5 7 2 9 -7 4 -8 -4 -5 0 6 8 11 9 26 14 34
11 12 -5 12 -3 0 12 -8 9 -9 14 -2 10 7 -4 16 0 22 10 8 14 11 15 11 3 1 -8 5
-5 11 9 6 15 15 21 24 17 8 -3 14 -2 14 2 -3 17 1 35 7 30 7 -8 50 34 47 44
-2 5 0 7 5 7 20 -3 32 2 32 16 0 8 6 12 14 9 9 -3 17 3 21 17 6 17 9 19 16 8
6 -10 9 -11 9 -1 0 18 39 54 51 47 5 -4 8 -1 7 7 -2 7 3 12 10 10 8 -1 11 2 7
7 -3 6 5 15 17 22 13 7 35 24 49 38 42 42 78 69 84 63 3 -3 5 3 5 13 0 10 3
16 6 12 3 -3 17 5 31 19 13 13 28 24 33 24 6 0 10 7 10 15 0 9 6 12 15 8 10
-3 15 0 13 8 -2 8 4 13 14 13 10 -1 15 2 12 7 -3 5 0 9 5 9 6 0 11 8 11 18 0
14 2 15 10 2 9 -13 14 -7 11 13 0 4 6 7 15 7 8 0 12 4 9 10 -4 6 1 7 11 3 14
-5 16 -3 11 11 -4 9 -3 15 2 11 6 -3 14 3 20 12 6 10 11 14 11 9 0 -4 8 2 18
14 18 23 72 35 72 16 0 -6 9 -18 20 -26 11 -8 20 -20 20 -28 0 -7 5 -10 10 -7
6 3 10 1 10 -4 0 -6 8 -11 17 -11 9 0 14 -3 10 -6 -8 -8 18 -34 33 -34 6 0 8
-4 5 -10 -3 -5 1 -10 10 -10 9 0 14 -3 12 -7 -3 -5 1 -14 9 -21 8 -7 14 -10
14 -6 0 4 12 -6 27 -22 15 -16 31 -28 35 -26 4 1 8 -5 8 -14 0 -8 5 -12 10 -9
6 3 10 2 10 -4 0 -5 12 -23 27 -38 14 -15 23 -22 18 -14 -5 10 -4 12 3 7 7 -4
12 -17 12 -29 0 -18 2 -19 10 -7 8 13 10 13 10 -2 0 -9 4 -20 10 -23 6 -4 7 1
4 12 -6 15 -4 15 9 -2 8 -11 14 -22 12 -25 -2 -3 6 -12 18 -20 19 -11 21 -11
12 1 -5 8 -2 6 7 -4 10 -11 15 -24 11 -31 -3 -6 -3 -8 2 -4 4 4 15 0 24 -10 9
-9 25 -22 36 -28 11 -7 19 -19 19 -28 -1 -9 2 -14 6 -11 10 6 50 -29 50 -44 0
-6 5 -10 12 -8 6 1 17 -9 25 -23 7 -14 13 -20 13 -15 0 6 5 2 11 -7 5 -10 17
-18 25 -18 8 0 13 -3 11 -7 -2 -5 4 -16 15 -25 10 -10 18 -16 18 -13 0 3 6 0
14 -7 8 -7 11 -17 8 -23 -3 -5 -2 -7 3 -3 10 10 37 -11 29 -23 -3 -5 4 -9 15
-9 12 0 21 -7 21 -15 0 -8 7 -15 16 -15 10 0 14 -5 10 -16 -3 -8 -2 -12 4 -9
6 3 10 1 10 -5 0 -6 5 -8 10 -5 6 3 10 -1 10 -10 0 -11 5 -15 14 -12 10 4 13
1 10 -7 -3 -8 0 -17 7 -22 8 -5 10 -3 4 7 -8 12 -6 12 8 0 9 -7 17 -20 17 -28
0 -8 5 -11 10 -8 6 3 10 1 10 -4 0 -6 7 -11 15 -11 9 0 12 -6 8 -15 -3 -10 0
-15 8 -13 8 2 13 -3 11 -10 -1 -8 2 -11 8 -7 5 3 10 1 10 -6 0 -7 3 -10 6 -6
8 7 54 -38 54 -53 0 -6 5 -8 10 -5 6 3 10 -1 10 -10 0 -11 5 -15 15 -11 8 3
14 0 12 -7 -1 -7 4 -11 11 -9 8 1 11 -2 7 -8 -3 -5 1 -13 9 -16 9 -3 13 -10
10 -16 -3 -5 2 -8 12 -6 13 2 18 -2 16 -14 -2 -12 2 -16 13 -12 10 4 15 0 15
-10 0 -9 7 -16 15 -16 13 0 15 37 15 270 0 183 -3 270 -11 270 -5 0 -8 4 -4 9
3 6 -4 8 -16 6 -17 -3 -19 -2 -9 10 10 12 8 13 -9 10 -14 -2 -18 1 -14 11 3 8
-1 14 -10 14 -8 0 -34 23 -58 50 -23 28 -49 50 -56 50 -8 0 -11 5 -8 10 3 6
-2 10 -11 10 -10 0 -15 3 -11 6 7 8 -12 28 -35 37 -10 3 -18 13 -18 22 0 8 -4
14 -8 12 -13 -3 -98 84 -94 97 2 6 1 8 -3 5 -3 -4 -24 11 -46 32 -23 22 -45
37 -50 34 -5 -4 -6 2 -2 12 3 10 3 15 -2 11 -4 -4 -20 6 -35 22 -15 16 -30 26
-34 23 -3 -3 -6 -1 -6 6 0 15 -25 41 -39 41 -10 0 -15 14 -12 33 1 5 -3 6 -9
2 -11 -7 -40 17 -40 34 0 6 -7 11 -15 11 -8 0 -15 5 -15 10 0 6 -7 10 -15 10
-8 0 -15 5 -15 10 0 11 -36 50 -46 50 -10 0 -34 28 -34 40 0 6 -4 8 -10 5 -5
-3 -10 2 -10 11 0 10 -3 15 -6 11 -8 -7 -34 17 -34 32 0 6 -7 7 -17 4 -10 -4
-14 -2 -10 4 8 12 -38 54 -49 45 -4 -4 -4 1 -1 11 4 10 3 16 -1 13 -5 -3 -21
7 -37 22 -16 15 -34 26 -39 24 -5 -2 -3 5 5 14 9 12 9 15 2 10 -8 -4 -13 -2
-13 6 0 10 -3 9 -11 -2 -9 -12 -10 -11 -6 7 3 15 1 20 -9 16 -8 -3 -14 0 -14
7 0 6 -4 8 -10 5 -5 -3 -10 1 -10 9 0 14 -11 20 -32 17 -4 0 -5 6 -2 14 4 10
0 15 -16 15 -11 0 -18 5 -15 10 3 6 -2 10 -12 10 -11 0 -24 5 -31 12 -7 7 -28
13 -47 15 -27 1 -35 -2 -35 -15z m74 0 c3 -5 -1 -9 -9 -9 -8 0 -15 4 -15 9 0
4 4 8 9 8 6 0 12 -4 15 -8z m211 -3382 c3 -5 1 -10 -4 -10 -6 0 -11 5 -11 10
0 6 2 10 4 10 3 0 8 -4 11 -10z"/>
<path d="M5015 2580 c3 -5 8 -10 11 -10 2 0 4 5 4 10 0 6 -5 10 -11 10 -5 0
-7 -4 -4 -10z"/>
<path d="M1075 2531 c-3 -5 -2 -12 3 -15 5 -3 9 1 9 9 0 17 -3 19 -12 6z"/>
</g>
</svg>
